<svg width="4932" height="569" viewBox="0 0 4932 569" fill="none" xmlns="http://www.w3.org/2000/svg" preserveAspectRatio="xMidYMid meet">
<g clip-path="url(#clip0_664_66)">
<g filter="url(#filter0_d_664_66)">
<path d="M0.00195312 449.369L106.121 118.625H228.923L334.115 449.369H233.557L215.947 387.846H106.121L88.5117 449.369H0.00195312ZM161.266 195.413L124.657 322.622H197.411L161.266 195.413Z" fill="white"/>
</g>
<g filter="url(#filter1_d_664_66)">
<path d="M372.156 449.369V118.625H498.202C542.997 118.625 576.362 128.185 598.297 147.305C620.233 166.116 631.198 193.408 631.198 229.181V231.032C631.198 265.571 619.923 292.092 597.37 310.595C575.127 328.79 543.461 337.887 502.372 337.887H466.69V449.369H372.156ZM466.69 273.126H494.031C525.233 273.126 540.834 259.249 540.834 231.494V229.644C540.834 203.123 525.388 189.862 494.495 189.862H466.69V273.126Z" fill="white"/>
</g>
<g filter="url(#filter2_d_664_66)">
<path d="M674.457 449.369V118.625H804.211C847.769 118.625 881.135 127.568 904.306 145.455C927.476 163.033 939.061 189.091 939.061 223.631V225.481C939.061 268.038 919.133 297.026 879.282 312.445L958.524 449.369H858.43L791.238 330.949H768.991V449.369H674.457ZM768.991 269.425H799.575C831.398 269.425 847.31 256.011 847.31 229.181V227.331C847.31 202.352 831.553 189.862 800.04 189.862H768.991V269.425Z" fill="white"/>
</g>
<g filter="url(#filter3_d_664_66)">
<path d="M1151.04 380.445C1174.52 380.445 1193.05 371.965 1206.64 355.003C1220.24 338.042 1227.03 314.759 1227.03 285.154V281.453C1227.03 252.157 1220.08 229.336 1206.18 212.992C1192.58 196.339 1174.05 188.013 1150.57 188.013C1127.09 188.013 1108.56 196.185 1094.96 212.529C1081.37 228.873 1074.57 252.003 1074.57 281.916V285.617C1074.57 315.222 1081.53 338.505 1095.43 355.466C1109.33 372.119 1127.87 380.445 1151.04 380.445ZM1149.18 454.92C1096.35 454.92 1054.18 439.347 1022.67 408.2C991.163 377.053 975.406 336.346 975.406 286.079V282.379C975.406 232.728 991.932 192.33 1024.99 161.183C1058.36 129.728 1100.21 114 1150.57 114C1201.85 114 1243.87 129.111 1276.62 159.333C1309.67 189.246 1326.2 229.49 1326.2 280.065V283.767C1326.2 334.959 1309.98 376.282 1277.54 407.738C1245.42 439.193 1202.63 454.92 1149.18 454.92Z" fill="white"/>
</g>
<g filter="url(#filter4_d_664_66)">
<path d="M1372.71 449.369V118.625H1498.76C1543.55 118.625 1576.91 128.185 1598.85 147.305C1620.78 166.116 1631.75 193.408 1631.75 229.181V231.032C1631.75 265.571 1620.48 292.092 1597.92 310.595C1575.68 328.79 1544.01 337.887 1502.92 337.887H1467.24V449.369H1372.71ZM1467.24 273.126H1494.58C1525.79 273.126 1541.39 259.249 1541.39 231.494V229.644C1541.39 203.123 1525.94 189.862 1495.05 189.862H1467.24V273.126Z" fill="white"/>
</g>
<g filter="url(#filter5_d_664_66)">
<path d="M1835.26 380.445C1858.74 380.445 1877.27 371.965 1890.86 355.003C1904.46 338.042 1911.26 314.759 1911.26 285.154V281.453C1911.26 252.157 1904.3 229.336 1890.41 212.992C1876.81 196.339 1858.27 188.013 1834.79 188.013C1811.32 188.013 1792.78 196.185 1779.18 212.529C1765.59 228.873 1758.8 252.003 1758.8 281.916V285.617C1758.8 315.222 1765.75 338.505 1779.65 355.466C1793.55 372.119 1812.09 380.445 1835.26 380.445ZM1833.4 454.92C1780.57 454.92 1738.4 439.347 1706.9 408.2C1675.38 377.053 1659.63 336.346 1659.63 286.079V282.379C1659.63 232.728 1676.16 192.33 1709.21 161.183C1742.58 129.728 1784.43 114 1834.79 114C1886.08 114 1928.09 129.111 1960.84 159.333C1993.9 189.246 2010.42 229.49 2010.42 280.065V283.767C2010.42 334.959 1994.21 376.282 1961.77 407.738C1929.64 439.193 1886.85 454.92 1833.4 454.92Z" fill="white"/>
</g>
<g filter="url(#filter6_d_664_66)">
<path d="M2173.85 454.92C2127.82 454.92 2092.91 445.515 2069.12 426.703C2045.33 407.891 2032.67 380.445 2031.12 344.364H2121.48C2122.72 357.933 2127.2 368.573 2134.93 376.282C2142.65 383.684 2155.63 387.384 2173.85 387.384C2187.13 387.384 2197.48 384.454 2204.9 378.595C2212.62 372.427 2216.48 364.409 2216.48 354.541C2216.48 344.672 2212.93 337.734 2205.83 333.725C2198.72 329.407 2184.82 325.707 2164.12 322.623C2117.47 317.072 2084.88 306.587 2066.34 291.168C2048.12 275.44 2039 250.769 2039 217.155C2039 186.933 2050.58 162.262 2073.75 143.142C2097.24 123.714 2128.44 114 2167.37 114C2248.62 114 2292.17 148.385 2298.04 217.155H2210C2206.6 193.409 2192.39 181.536 2167.37 181.536C2155.01 181.536 2145.43 184.158 2138.64 189.4C2132.15 194.334 2128.9 201.119 2128.9 209.754C2128.9 219.314 2132.46 226.406 2139.56 231.032C2146.66 235.658 2160.26 239.359 2180.34 242.134C2224.83 247.069 2257.11 256.937 2277.19 271.74C2297.27 286.234 2307.31 310.596 2307.31 344.827C2307.31 376.282 2295.42 402.495 2271.63 423.465C2247.84 444.436 2215.25 454.92 2173.85 454.92Z" fill="white"/>
</g>
</g>
<path d="M2502.39 455V113.182H2617.89C2644.59 113.182 2666.51 117.744 2683.65 126.868C2700.78 135.881 2713.47 148.287 2721.7 164.087C2729.94 179.888 2734.05 197.857 2734.05 217.997C2734.05 238.137 2729.94 255.995 2721.7 271.573C2713.47 287.151 2700.84 299.39 2683.82 308.292C2666.79 317.082 2645.04 321.477 2618.56 321.477H2525.09V284.091H2617.22C2635.47 284.091 2650.16 281.42 2661.28 276.08C2672.52 270.739 2680.64 263.172 2685.65 253.381C2690.77 243.478 2693.33 231.683 2693.33 217.997C2693.33 204.311 2690.77 192.35 2685.65 182.113C2680.53 171.876 2672.36 163.976 2661.12 158.413C2649.88 152.738 2635.02 149.901 2616.55 149.901H2543.78V455H2502.39ZM2663.29 301.449L2747.41 455H2699.34L2616.55 301.449H2663.29ZM2803.03 455V113.182H3009.32V149.901H2844.42V265.398H2998.64V302.116H2844.42V418.281H3011.99V455H2803.03ZM3270.86 198.636C3268.85 181.723 3260.73 168.594 3246.49 159.247C3232.25 149.901 3214.78 145.227 3194.08 145.227C3178.95 145.227 3165.71 147.675 3154.36 152.571C3143.12 157.467 3134.33 164.199 3127.99 172.766C3121.76 181.334 3118.64 191.07 3118.64 201.974C3118.64 211.098 3120.81 218.943 3125.15 225.508C3129.6 231.961 3135.28 237.358 3142.17 241.697C3149.07 245.926 3156.31 249.431 3163.87 252.212C3171.44 254.883 3178.39 257.053 3184.73 258.722L3219.45 268.068C3228.35 270.405 3238.26 273.632 3249.16 277.749C3260.18 281.866 3270.69 287.485 3280.7 294.606C3290.83 301.616 3299.18 310.629 3305.74 321.644C3312.3 332.66 3315.59 346.179 3315.59 362.202C3315.59 380.672 3310.75 397.363 3301.07 412.273C3291.5 427.183 3277.48 439.033 3259.01 447.823C3240.65 456.613 3218.34 461.009 3192.08 461.009C3167.6 461.009 3146.4 457.058 3128.49 449.158C3110.69 441.258 3096.67 430.243 3086.43 416.112C3076.3 401.98 3070.57 385.568 3069.24 366.875H3111.97C3113.08 379.782 3117.42 390.464 3124.98 398.92C3132.66 407.266 3142.34 413.497 3154.02 417.614C3165.82 421.619 3178.5 423.622 3192.08 423.622C3207.88 423.622 3222.07 421.063 3234.64 415.945C3247.21 410.715 3257.17 403.482 3264.51 394.247C3271.86 384.901 3275.53 373.996 3275.53 361.534C3275.53 350.185 3272.36 340.949 3266.02 333.828C3259.67 326.707 3251.33 320.921 3240.98 316.47C3230.63 312.019 3219.45 308.125 3207.43 304.787L3165.37 292.77C3138.67 285.092 3117.53 274.132 3101.95 259.89C3086.37 245.647 3078.58 227.01 3078.58 203.977C3078.58 184.839 3083.76 168.149 3094.11 153.906C3104.57 139.553 3118.59 128.426 3136.17 120.526C3153.86 112.514 3173.61 108.509 3195.42 108.509C3217.45 108.509 3237.03 112.459 3254.17 120.359C3271.3 128.147 3284.88 138.829 3294.89 152.404C3305.02 165.979 3310.36 181.39 3310.91 198.636H3270.86ZM3383.64 455V113.182H3589.93V149.901H3425.03V265.398H3579.25V302.116H3425.03V418.281H3592.61V455H3383.64ZM3678.56 455H3635.17L3760.68 113.182H3803.4L3928.92 455H3885.52L3783.38 167.259H3780.71L3678.56 455ZM3694.58 321.477H3869.5V358.196H3694.58V321.477ZM3982.16 455V113.182H4097.65C4124.36 113.182 4146.28 117.744 4163.41 126.868C4180.55 135.881 4193.23 148.287 4201.47 164.087C4209.7 179.888 4213.82 197.857 4213.82 217.997C4213.82 238.137 4209.7 255.995 4201.47 271.573C4193.23 287.151 4180.61 299.39 4163.58 308.292C4146.56 317.082 4124.8 321.477 4098.32 321.477H4004.86V284.091H4096.99C4115.24 284.091 4129.92 281.42 4141.05 276.08C4152.29 270.739 4160.41 263.172 4165.42 253.381C4170.54 243.478 4173.1 231.683 4173.1 217.997C4173.1 204.311 4170.54 192.35 4165.42 182.113C4160.3 171.876 4152.12 163.976 4140.88 158.413C4129.64 152.738 4114.79 149.901 4096.32 149.901H4023.55V455H3982.16ZM4143.05 301.449L4227.17 455H4179.1L4096.32 301.449H4143.05ZM4624.74 455V113.182H4666.13V265.398H4848.39V113.182H4889.78V455H4848.39V302.116H4666.13V455H4624.74Z" fill="white"/>
<defs>
<filter id="filter0_d_664_66" x="-3.99805" y="118.625" width="342.113" height="338.744" filterUnits="userSpaceOnUse" color-interpolation-filters="sRGB">
<feFlood flood-opacity="0" result="BackgroundImageFix"/>
<feColorMatrix in="SourceAlpha" type="matrix" values="0 0 0 0 0 0 0 0 0 0 0 0 0 0 0 0 0 0 127 0" result="hardAlpha"/>
<feOffset dy="4"/>
<feGaussianBlur stdDeviation="2"/>
<feComposite in2="hardAlpha" operator="out"/>
<feColorMatrix type="matrix" values="0 0 0 0 0 0 0 0 0 0 0 0 0 0 0 0 0 0 0.25 0"/>
<feBlend mode="normal" in2="BackgroundImageFix" result="effect1_dropShadow_664_66"/>
<feBlend mode="normal" in="SourceGraphic" in2="effect1_dropShadow_664_66" result="shape"/>
</filter>
<filter id="filter1_d_664_66" x="368.156" y="118.625" width="267.041" height="338.744" filterUnits="userSpaceOnUse" color-interpolation-filters="sRGB">
<feFlood flood-opacity="0" result="BackgroundImageFix"/>
<feColorMatrix in="SourceAlpha" type="matrix" values="0 0 0 0 0 0 0 0 0 0 0 0 0 0 0 0 0 0 127 0" result="hardAlpha"/>
<feOffset dy="4"/>
<feGaussianBlur stdDeviation="2"/>
<feComposite in2="hardAlpha" operator="out"/>
<feColorMatrix type="matrix" values="0 0 0 0 0 0 0 0 0 0 0 0 0 0 0 0 0 0 0.25 0"/>
<feBlend mode="normal" in2="BackgroundImageFix" result="effect1_dropShadow_664_66"/>
<feBlend mode="normal" in="SourceGraphic" in2="effect1_dropShadow_664_66" result="shape"/>
</filter>
<filter id="filter2_d_664_66" x="670.457" y="118.625" width="292.066" height="338.744" filterUnits="userSpaceOnUse" color-interpolation-filters="sRGB">
<feFlood flood-opacity="0" result="BackgroundImageFix"/>
<feColorMatrix in="SourceAlpha" type="matrix" values="0 0 0 0 0 0 0 0 0 0 0 0 0 0 0 0 0 0 127 0" result="hardAlpha"/>
<feOffset dy="4"/>
<feGaussianBlur stdDeviation="2"/>
<feComposite in2="hardAlpha" operator="out"/>
<feColorMatrix type="matrix" values="0 0 0 0 0 0 0 0 0 0 0 0 0 0 0 0 0 0 0.25 0"/>
<feBlend mode="normal" in2="BackgroundImageFix" result="effect1_dropShadow_664_66"/>
<feBlend mode="normal" in="SourceGraphic" in2="effect1_dropShadow_664_66" result="shape"/>
</filter>
<filter id="filter3_d_664_66" x="971.406" y="114" width="358.795" height="348.921" filterUnits="userSpaceOnUse" color-interpolation-filters="sRGB">
<feFlood flood-opacity="0" result="BackgroundImageFix"/>
<feColorMatrix in="SourceAlpha" type="matrix" values="0 0 0 0 0 0 0 0 0 0 0 0 0 0 0 0 0 0 127 0" result="hardAlpha"/>
<feOffset dy="4"/>
<feGaussianBlur stdDeviation="2"/>
<feComposite in2="hardAlpha" operator="out"/>
<feColorMatrix type="matrix" values="0 0 0 0 0 0 0 0 0 0 0 0 0 0 0 0 0 0 0.25 0"/>
<feBlend mode="normal" in2="BackgroundImageFix" result="effect1_dropShadow_664_66"/>
<feBlend mode="normal" in="SourceGraphic" in2="effect1_dropShadow_664_66" result="shape"/>
</filter>
<filter id="filter4_d_664_66" x="1368.71" y="118.625" width="267.043" height="338.744" filterUnits="userSpaceOnUse" color-interpolation-filters="sRGB">
<feFlood flood-opacity="0" result="BackgroundImageFix"/>
<feColorMatrix in="SourceAlpha" type="matrix" values="0 0 0 0 0 0 0 0 0 0 0 0 0 0 0 0 0 0 127 0" result="hardAlpha"/>
<feOffset dy="4"/>
<feGaussianBlur stdDeviation="2"/>
<feComposite in2="hardAlpha" operator="out"/>
<feColorMatrix type="matrix" values="0 0 0 0 0 0 0 0 0 0 0 0 0 0 0 0 0 0 0.25 0"/>
<feBlend mode="normal" in2="BackgroundImageFix" result="effect1_dropShadow_664_66"/>
<feBlend mode="normal" in="SourceGraphic" in2="effect1_dropShadow_664_66" result="shape"/>
</filter>
<filter id="filter5_d_664_66" x="1655.63" y="114" width="358.795" height="348.921" filterUnits="userSpaceOnUse" color-interpolation-filters="sRGB">
<feFlood flood-opacity="0" result="BackgroundImageFix"/>
<feColorMatrix in="SourceAlpha" type="matrix" values="0 0 0 0 0 0 0 0 0 0 0 0 0 0 0 0 0 0 0.25 0" result="hardAlpha"/>
<feOffset dy="4"/>
<feGaussianBlur stdDeviation="2"/>
<feComposite in2="hardAlpha" operator="out"/>
<feColorMatrix type="matrix" values="0 0 0 0 0 0 0 0 0 0 0 0 0 0 0 0 0 0 0.25 0"/>
<feBlend mode="normal" in2="BackgroundImageFix" result="effect1_dropShadow_664_66"/>
<feBlend mode="normal" in="SourceGraphic" in2="effect1_dropShadow_664_66" result="shape"/>
</filter>
<filter id="filter6_d_664_66" x="2027.12" y="114" width="284.189" height="348.921" filterUnits="userSpaceOnUse" color-interpolation-filters="sRGB">
<feFlood flood-opacity="0" result="BackgroundImageFix"/>
<feColorMatrix in="SourceAlpha" type="matrix" values="0 0 0 0 0 0 0 0 0 0 0 0 0 0 0 0 0 0 127 0" result="hardAlpha"/>
<feOffset dy="4"/>
<feGaussianBlur stdDeviation="2"/>
<feComposite in2="hardAlpha" operator="out"/>
<feColorMatrix type="matrix" values="0 0 0 0 0 0 0 0 0 0 0 0 0 0 0 0 0 0 0.25 0"/>
<feBlend mode="normal" in2="BackgroundImageFix" result="effect1_dropShadow_664_66"/>
<feBlend mode="normal" in="SourceGraphic" in2="effect1_dropShadow_664_66" result="shape"/>
</filter>
<clipPath id="clip0_664_66">
<rect width="2312.06" height="340.92" fill="white" transform="translate(0 114)"/>
</clipPath>
</defs>
</svg>

